<svg height="512pt" viewBox="0 -28 512.00025 512" width="512pt" xmlns="http://www.w3.org/2000/svg"><path d="m330.121094 194.15625c.902344 8.105469-5.101563 15.605469-13.203125 16.503906h-1.5l-59.417969 59.417969-60.917969-59.417969c-8.101562-.898437-14.101562-8.398437-13.199219-16.503906 7.199219-72.320312 61.214844-127.539062 63.617188-129.636719 2.699219-2.703125 6.601562-4.203125 10.5-4.203125 3.902344 0 7.804688 1.5 10.503906 4.203125 2.398438 2.097657 56.414063 57.316407 63.617188 129.636719zm0 0" fill="#ff7cb9"/><path d="m330.121094 194.15625c.902344 8.105469-5.101563 15.605469-13.203125 16.503906h-1.5l-59.417969 59.417969v-209.761719c3.902344 0 7.804688 1.5 10.503906 4.203125 2.398438 2.097657 56.414063 57.316407 63.617188 129.636719zm0 0" fill="#fa5e97"/><path d="m451.058594 165.046875v30.011719c0 26.40625-6.003906 51.613281-18.003906 75.019531l-177.054688 60.019531-177.054688-60.019531c-12-23.40625-18.003906-48.613281-18.003906-75.019531v-30.011719c0-8.402344 6.601563-15.003906 15.003906-15.003906h30.011719c66.617188 0 123.933594 39.613281 150.042969 96.328125 26.109375-56.714844 83.425781-96.328125 150.042969-96.328125h30.011719c8.402343 0 15.003906 6.601562 15.003906 15.003906zm0 0" fill="#fa5e97"/><path d="m451.058594 165.046875v30.011719c0 26.40625-6.003906 51.613281-18.003906 75.019531l-177.054688 60.019531v-83.726562c26.109375-56.714844 83.425781-96.328125 150.042969-96.328125h30.011719c8.402343 0 15.003906 6.601562 15.003906 15.003906zm0 0" fill="#d94f88"/><path d="m316.015625 360.105469c0 41.113281-26.707031 70.519531-50.113281 91.226562-2.699219 2.703125-6.300782 3.902344-9.902344 3.902344s-7.203125-1.199219-9.902344-3.902344c-23.40625-20.707031-50.117187-50.113281-50.117187-91.226562 0-3.601563.300781-7.203125.601562-10.503907.902344-8.402343 8.402344-14.101562 16.507813-13.203124h85.824218c8.402344-.898438 15.605469 4.800781 16.503907 13.203124.300781 3.300782.597656 6.902344.597656 10.503907zm0 0" fill="#fa5e97"/><path d="m315.417969 349.601562c.300781 3.300782.601562 6.902344.601562 10.503907 0 41.113281-26.707031 70.519531-50.113281 91.226562-2.703125 2.703125-6.304688 3.902344-9.90625 3.902344v-118.835937h42.914062c8.402344-.898438 15.605469 4.800781 16.503907 13.203124zm0 0" fill="#d94f88"/><path d="m508.175781 324.992188c-2.402343 2.703124-60.117187 65.121093-132.140625 65.121093-54.316406 0-99.929687-35.410156-120.035156-54.015625-20.105469 18.605469-65.71875 54.015625-120.035156 54.015625-72.023438 0-129.738282-62.417969-132.140625-65.121093-5.097657-5.699219-5.097657-14.101563 0-19.804688 2.402343-2.699219 60.117187-65.117188 132.140625-65.117188 54.316406 0 99.929687 35.410157 120.035156 54.015626 20.105469-18.605469 65.71875-54.015626 120.035156-54.015626 72.023438 0 129.738282 62.417969 132.140625 65.117188 5.101563 5.703125 5.101563 14.105469 0 19.804688zm0 0" fill="#ff7cb9"/><path d="m271.003906 15.003906c0 8.402344-6.601562 15.003906-15.003906 15.003906s-15.003906-6.601562-15.003906-15.003906 6.601562-15.003906 15.003906-15.003906 15.003906 6.601562 15.003906 15.003906zm0 0" fill="#ffd396"/><path d="m180.976562 75.023438c0 8.285156-6.714843 15.003906-15.003906 15.003906-8.285156 0-15.003906-6.71875-15.003906-15.003906 0-8.289063 6.71875-15.003907 15.003906-15.003907 8.289063 0 15.003906 6.714844 15.003906 15.003907zm0 0" fill="#ffd396"/><path d="m361.03125 75.023438c0 8.285156-6.71875 15.003906-15.003906 15.003906-8.289063 0-15.003906-6.71875-15.003906-15.003906 0-8.289063 6.714843-15.003907 15.003906-15.003907 8.285156 0 15.003906 6.714844 15.003906 15.003907zm0 0" fill="#ffb64c"/><path d="m508.175781 324.992188c-2.402343 2.703124-60.117187 65.121093-132.140625 65.121093-54.316406 0-99.929687-35.410156-120.035156-54.015625v-42.011718c20.105469-18.605469 65.71875-54.015626 120.035156-54.015626 72.023438 0 129.738282 62.417969 132.140625 65.117188 5.101563 5.703125 5.101563 14.105469 0 19.804688zm0 0" fill="#fa5e97"/><path d="m271.003906 15.003906c0 8.402344-6.601562 15.003906-15.003906 15.003906v-30.007812c8.402344 0 15.003906 6.601562 15.003906 15.003906zm0 0" fill="#ffb64c"/></svg>